# xmcd
#
# Track frame offsets:
#	150
#	11085
#	19817
#	28450
#	40917
#	52175
#	61682
#	87465
#	102415
#	114342
#	128027
#	138612
#	152312
#	162650
#
# Disc length: 2335 seconds
#
# Revision: 1
# Processed by: cddbd v1.5.1PL0 Copyright (c) Steve Scherf et al.
# Submitted via: CDex 1.50Beta5
#
DISCID=be091d0e
DTITLE=東京ボーカル・グループ - 日本軍歌全曲集
DYEAR=1997
DGENRE=
TTITLE0=軍艦行進曲
TTITLE1=道は六百八十里
TTITLE2=海ゆかば
TTITLE3=婦人従軍歌
TTITLE4=広瀬中佐
TTITLE5=雪の進軍
TTITLE6=戦友
TTITLE7=敵は幾万
TTITLE8=勇敢なる水兵
TTITLE9=日本陸軍
TTITLE10=愛馬進軍歌
TTITLE11=月月火水木金金
TTITLE12=進軍の歌
TTITLE13=愛国行進曲
EXTD=
EXTT0=
EXTT1=
EXTT2=
EXTT3=
EXTT4=
EXTT5=
EXTT6=
EXTT7=
EXTT8=
EXTT9=
EXTT10=
EXTT11=
EXTT12=
EXTT13=
PLAYORDER=
